<?xml version="1.0" encoding="UTF-8"?>
<svg width="249px" height="104px" viewBox="0 0 249 104" version="1.1" xmlns="http://www.w3.org/2000/svg" xmlns:xlink="http://www.w3.org/1999/xlink">
    <!-- Generator: Sketch 46.1 (44463) - http://www.bohemiancoding.com/sketch -->
    <title>PHI</title>
    <desc>Created with Sketch.</desc>
    <defs></defs>
    <g id="Page-1" stroke="none" stroke-width="1" fill="none" fill-rule="evenodd">
        <path d="M0.064,0.464 L86.464,0.464 C91.264024,0.464 95.3439832,2.1439832 98.704,5.504 C102.064017,8.8640168 103.744,12.943976 103.744,17.744 L103.744,48.128 C103.744,52.928024 102.064017,57.0079832 98.704,60.368 C95.3439832,63.7280168 91.264024,65.408 86.464,65.408 L17.344,65.408 C16.4799957,65.408 14.6080144,65.2160019 11.728,64.832 L11.728,104 L0.064,104 L0.064,0.464 Z M92.08,48.128 L92.08,17.744 C92.08,16.2079923 91.5280055,14.8880055 90.424,13.784 C89.3199945,12.6799945 88.0000077,12.128 86.464,12.128 L17.344,12.128 C15.8079923,12.128 14.4880055,12.6799945 13.384,13.784 C12.2799945,14.8880055 11.728,16.2079923 11.728,17.744 L11.728,48.128 C11.728,49.6640077 12.2799945,50.9599947 13.384,52.016 C14.4880055,53.0720053 15.8079923,53.6 17.344,53.6 L86.464,53.6 C88.0000077,53.6 89.3199945,53.0720053 90.424,52.016 C91.5280055,50.9599947 92.08,49.6640077 92.08,48.128 Z M208.576,0.32 L220.384,0.32 L220.384,104 L208.576,104 L208.576,58.064 L125.776,58.064 L125.776,104 L114.112,104 L114.112,0.32 L125.776,0.32 L125.776,46.256 L208.576,46.256 L208.576,0.32 Z M236.656,104 L236.656,0.32 L248.32,0.32 L248.32,104 L236.656,104 Z" id="PHI" fill="#4A90E2"></path>
    </g>
</svg>